<svg width="16" height="17" viewBox="0 0 16 17" fill="none" xmlns="http://www.w3.org/2000/svg">
<g clip-path="url(#clip0_4000_10303)">
<path d="M13.5319 7.78562C13.3909 7.73862 13.2549 7.69362 13.1249 7.65062C12.1289 7.32562 11.5289 7.12862 11.5289 6.32362C11.5289 5.67062 12.0139 5.19762 12.6819 5.19762C13.1939 5.19762 13.5759 5.41862 13.9179 5.91662C13.9499 5.96262 14.0109 5.97962 14.0599 5.95262L15.0649 5.41962C15.0919 5.40562 15.1129 5.38062 15.1209 5.34962C15.1289 5.31862 15.1259 5.28662 15.1119 5.25862C14.5729 4.26462 13.7969 3.78162 12.7379 3.78162C11.1269 3.78162 10.0849 4.79462 10.0849 6.36162C10.0849 7.96362 11.0929 8.61262 12.9509 9.24762C14.0269 9.62062 14.5039 9.81762 14.5039 10.6136C14.5039 11.5086 13.7269 12.1516 12.6669 12.1136C11.5559 12.0746 11.2199 11.4636 10.7969 10.4616C10.0809 8.76462 9.26594 6.78462 9.25894 6.76562C8.44194 4.80562 6.82094 3.68262 4.81194 3.68262C2.15894 3.68262 -6.10352e-05 5.92562 -6.10352e-05 8.68362C-6.10352e-05 11.4396 2.15894 13.6826 4.81194 13.6826C6.25894 13.6826 7.61594 13.0166 8.53394 11.8536C8.55994 11.8196 8.56694 11.7736 8.54994 11.7336L7.94394 10.2796C7.92694 10.2396 7.88794 10.2116 7.84494 10.2096C7.80094 10.2076 7.76194 10.2326 7.74194 10.2716C7.16894 11.4086 6.04594 12.1146 4.81194 12.1146C2.99094 12.1146 1.50994 10.5756 1.50994 8.68262C1.50994 6.78962 2.99094 5.25062 4.81194 5.25062C6.13794 5.25062 7.35194 6.06762 7.83494 7.28762L9.33594 10.8426L9.50894 11.2416C10.1869 12.8826 11.1839 13.6186 12.7449 13.6246C14.6009 13.6246 15.9999 12.3466 15.9999 10.6526C15.9999 8.95362 15.0949 8.31562 13.5319 7.78562Z" fill="#979BB0"/>
</g>
<defs>
<clipPath id="clip0_4000_10303">
<rect width="16" height="16" fill="white" transform="translate(-6.10352e-05 0.682617)"/>
</clipPath>
</defs>
</svg>
