<svg width="16" height="17" viewBox="0 0 16 17" fill="none" xmlns="http://www.w3.org/2000/svg">
<g clip-path="url(#clip0_4000_10286)">
<path d="M7.99994 1.74927C5.94127 1.74927 4.26661 3.42393 4.26661 5.4826V11.8826C4.26661 12.1759 4.02767 12.4159 3.73327 12.4159C3.43887 12.4159 3.19994 12.1759 3.19994 11.8826V9.21593H-6.10352e-05V11.8826C-6.10352e-05 13.9413 1.67461 15.6159 3.73327 15.6159C5.79194 15.6159 7.46661 13.9413 7.46661 11.8826V5.4826C7.46661 5.1882 7.70554 4.94927 7.99994 4.94927C8.29434 4.94927 8.53327 5.1882 8.53327 5.4826V7.5082L10.1333 8.57487L11.7333 7.5082V5.4826C11.7333 3.42393 10.0586 1.74927 7.99994 1.74927Z" fill="#979BB0"/>
<path d="M12.7999 9.21601V11.8827C12.7999 12.176 12.5599 12.416 12.2666 12.416C11.9733 12.416 11.7333 12.176 11.7333 11.8827V8.79041L10.4287 9.65974C10.3391 9.71947 10.2367 9.74934 10.1333 9.74934C10.0298 9.74934 9.9274 9.71947 9.8378 9.65974L8.53326 8.79041V11.8827C8.53326 13.9413 10.2079 15.616 12.2666 15.616C14.3253 15.616 15.9999 13.9413 15.9999 11.8827V9.21601H12.7999Z" fill="#979BB0"/>
</g>
<defs>
<clipPath id="clip0_4000_10286">
<rect width="16" height="16" fill="white" transform="translate(-6.10352e-05 0.682617)"/>
</clipPath>
</defs>
</svg>
