<svg width="16" height="17" viewBox="0 0 16 17" fill="none" xmlns="http://www.w3.org/2000/svg">
<g clip-path="url(#clip0_4000_10296)">
<path d="M10.1186 5.1338C10.1186 4.00383 10.5524 3.41579 11.1649 3.41579C11.7482 3.41579 12.1368 3.94361 12.1368 5.01337C12.1368 5.6221 11.975 6.28917 11.8555 6.68339C11.8564 6.68433 12.4369 7.70516 14.0251 7.39185C14.3619 6.63729 14.5454 5.65974 14.5454 4.80261C14.5454 2.49657 13.3787 1.15491 11.2411 1.15491C9.0423 1.15491 7.75709 2.8588 7.75709 5.10463C7.75709 7.32976 8.78921 9.24064 10.4903 10.1109C9.77523 11.5533 8.86448 12.8244 7.91516 13.7822C6.19339 11.6822 4.63627 8.88217 3.99648 3.41673H1.45428C2.62848 12.5195 6.12753 15.4174 7.05239 15.9744C7.57551 16.2914 8.02712 16.2764 8.50507 16.0045C9.25588 15.5736 11.5121 13.3004 12.7615 10.6369C13.2856 10.635 13.9159 10.5748 14.5444 10.4308V8.63849C14.1596 8.72787 13.788 8.76739 13.453 8.76739C11.5685 8.76739 10.1186 7.44078 10.1186 5.1338Z" fill="#979BB0"/>
</g>
<defs>
<clipPath id="clip0_4000_10296">
<rect width="16" height="16" fill="white" transform="translate(-6.10352e-05 0.682617)"/>
</clipPath>
</defs>
</svg>
