<svg width="24" height="25" viewBox="0 0 24 25" fill="none" xmlns="http://www.w3.org/2000/svg">
<g clip-path="url(#clip0_5608_27670)">
<path d="M12.063 0.5C5.43599 0.5 0.0629883 5.873 0.0629883 12.5C0.0629883 19.127 5.43599 24.5 12.063 24.5C18.69 24.5 24.063 19.127 24.063 12.5C24.063 5.873 18.69 0.5 12.063 0.5ZM17.622 9.1805L11.874 17.966C11.8725 17.9675 11.8695 17.969 11.8695 17.9705C11.8395 18.0155 11.823 18.0665 11.7855 18.1085C11.733 18.1655 11.6655 18.1955 11.6055 18.239C11.5905 18.2495 11.5755 18.2615 11.559 18.272C11.466 18.3305 11.37 18.3695 11.265 18.395C11.2305 18.404 11.199 18.413 11.163 18.419C11.0794 18.4305 10.9948 18.4315 10.911 18.422C10.8518 18.4183 10.7931 18.4092 10.7355 18.395C10.6761 18.3771 10.6184 18.354 10.563 18.326C10.515 18.3035 10.464 18.2975 10.419 18.269C10.386 18.248 10.368 18.215 10.3395 18.1895C10.3275 18.179 10.3125 18.176 10.3005 18.1655L6.95399 15.071C6.75563 14.8805 6.6399 14.6198 6.6317 14.345C6.62349 14.0701 6.72344 13.803 6.91009 13.601C7.09673 13.399 7.35516 13.2783 7.62983 13.2649C7.9045 13.2514 8.17349 13.3463 8.37899 13.529L10.8015 15.77L15.864 8.0315C16.0164 7.79837 16.2551 7.63532 16.5277 7.57822C16.8003 7.52112 17.0844 7.57463 17.3175 7.727C17.5506 7.87937 17.7137 8.1181 17.7708 8.39069C17.8279 8.66327 17.7744 8.94738 17.622 9.1805Z" fill="url(#paint0_linear_5608_27670)"/>
</g>
<defs>
<linearGradient id="paint0_linear_5608_27670" x1="-2.28978" y1="30.3" x2="44.1496" y2="26.6774" gradientUnits="userSpaceOnUse">
<stop stop-color="#FF842C"/>
<stop offset="1" stop-color="#FFD012"/>
</linearGradient>
<clipPath id="clip0_5608_27670">
<rect width="24" height="24" fill="white" transform="translate(0 0.5)"/>
</clipPath>
</defs>
</svg>
