<svg width="18" height="13" viewBox="0 0 18 13" fill="none" xmlns="http://www.w3.org/2000/svg">
<path d="M16.332 0.5C16.4859 0.500022 16.6383 0.530535 16.7803 0.589844C16.9219 0.649011 17.0502 0.735887 17.1582 0.844727C17.2666 0.95357 17.3526 1.08266 17.4111 1.22461C17.4697 1.36651 17.5 1.51843 17.5 1.67188C17.5 1.82543 17.4697 1.97812 17.4111 2.12012C17.3527 2.26161 17.2662 2.38944 17.1582 2.49805L17.1592 2.49902L7.94727 11.7627V11.7637C7.47791 12.2349 6.84113 12.4999 6.17676 12.5C5.5122 12.5 4.87472 12.235 4.40527 11.7637V11.7627L0.842773 8.17871C0.734287 8.06995 0.647502 7.94167 0.588867 7.7998C0.530217 7.65777 0.500028 7.50519 0.5 7.35156C0.5 7.19787 0.530194 7.04542 0.588867 6.90332C0.647468 6.7614 0.733321 6.63224 0.841797 6.52344C0.949821 6.4146 1.07814 6.32773 1.21973 6.26855C1.36178 6.2092 1.51494 6.17871 1.66895 6.17871C1.82278 6.17877 1.97528 6.20926 2.11719 6.26855C2.25877 6.32773 2.38709 6.4146 2.49512 6.52344L6.05762 10.1104L6.05859 10.1113C6.07412 10.127 6.09241 10.1391 6.1123 10.1475C6.13234 10.1558 6.15426 10.1602 6.17578 10.1602C6.19718 10.1601 6.21836 10.1558 6.23828 10.1475C6.25821 10.1391 6.27644 10.127 6.29199 10.1113L6.29297 10.1104L15.5049 0.844727C15.613 0.735735 15.742 0.649069 15.8838 0.589844C16.0257 0.530591 16.1782 0.5 16.332 0.5Z" fill="#000322"/>
<path d="M16.332 0.5C16.4859 0.500022 16.6383 0.530535 16.7803 0.589844C16.9219 0.649011 17.0502 0.735887 17.1582 0.844727C17.2666 0.95357 17.3526 1.08266 17.4111 1.22461C17.4697 1.36651 17.5 1.51843 17.5 1.67188C17.5 1.82543 17.4697 1.97812 17.4111 2.12012C17.3527 2.26161 17.2662 2.38944 17.1582 2.49805L17.1592 2.49902L7.94727 11.7627V11.7637C7.47791 12.2349 6.84113 12.4999 6.17676 12.5C5.5122 12.5 4.87472 12.235 4.40527 11.7637V11.7627L0.842773 8.17871C0.734287 8.06995 0.647502 7.94167 0.588867 7.7998C0.530217 7.65777 0.500028 7.50519 0.5 7.35156C0.5 7.19787 0.530194 7.04542 0.588867 6.90332C0.647468 6.7614 0.733321 6.63224 0.841797 6.52344C0.949821 6.4146 1.07814 6.32773 1.21973 6.26855C1.36178 6.2092 1.51494 6.17871 1.66895 6.17871C1.82278 6.17877 1.97528 6.20926 2.11719 6.26855C2.25877 6.32773 2.38709 6.4146 2.49512 6.52344L6.05762 10.1104L6.05859 10.1113C6.07412 10.127 6.09241 10.1391 6.1123 10.1475C6.13234 10.1558 6.15426 10.1602 6.17578 10.1602C6.19718 10.1601 6.21836 10.1558 6.23828 10.1475C6.25821 10.1391 6.27644 10.127 6.29199 10.1113L6.29297 10.1104L15.5049 0.844727C15.613 0.735735 15.742 0.649069 15.8838 0.589844C16.0257 0.530591 16.1782 0.5 16.332 0.5Z" fill="black" fill-opacity="0.2"/>
<path d="M16.332 0.5C16.4859 0.500022 16.6383 0.530535 16.7803 0.589844C16.9219 0.649011 17.0502 0.735887 17.1582 0.844727C17.2666 0.95357 17.3526 1.08266 17.4111 1.22461C17.4697 1.36651 17.5 1.51843 17.5 1.67188C17.5 1.82543 17.4697 1.97812 17.4111 2.12012C17.3527 2.26161 17.2662 2.38944 17.1582 2.49805L17.1592 2.49902L7.94727 11.7627V11.7637C7.47791 12.2349 6.84113 12.4999 6.17676 12.5C5.5122 12.5 4.87472 12.235 4.40527 11.7637V11.7627L0.842773 8.17871C0.734287 8.06995 0.647502 7.94167 0.588867 7.7998C0.530217 7.65777 0.500028 7.50519 0.5 7.35156C0.5 7.19787 0.530194 7.04542 0.588867 6.90332C0.647468 6.7614 0.733321 6.63224 0.841797 6.52344C0.949821 6.4146 1.07814 6.32773 1.21973 6.26855C1.36178 6.2092 1.51494 6.17871 1.66895 6.17871C1.82278 6.17877 1.97528 6.20926 2.11719 6.26855C2.25877 6.32773 2.38709 6.4146 2.49512 6.52344L6.05762 10.1104L6.05859 10.1113C6.07412 10.127 6.09241 10.1391 6.1123 10.1475C6.13234 10.1558 6.15426 10.1602 6.17578 10.1602C6.19718 10.1601 6.21836 10.1558 6.23828 10.1475C6.25821 10.1391 6.27644 10.127 6.29199 10.1113L6.29297 10.1104L15.5049 0.844727C15.613 0.735735 15.742 0.649069 15.8838 0.589844C16.0257 0.530591 16.1782 0.5 16.332 0.5Z" fill="black" fill-opacity="0.2"/>
<path d="M16.332 0.5C16.4859 0.500022 16.6383 0.530535 16.7803 0.589844C16.9219 0.649011 17.0502 0.735887 17.1582 0.844727C17.2666 0.95357 17.3526 1.08266 17.4111 1.22461C17.4697 1.36651 17.5 1.51843 17.5 1.67188C17.5 1.82543 17.4697 1.97812 17.4111 2.12012C17.3527 2.26161 17.2662 2.38944 17.1582 2.49805L17.1592 2.49902L7.94727 11.7627V11.7637C7.47791 12.2349 6.84113 12.4999 6.17676 12.5C5.5122 12.5 4.87472 12.235 4.40527 11.7637V11.7627L0.842773 8.17871C0.734287 8.06995 0.647502 7.94167 0.588867 7.7998C0.530217 7.65777 0.500028 7.50519 0.5 7.35156C0.5 7.19787 0.530194 7.04542 0.588867 6.90332C0.647468 6.7614 0.733321 6.63224 0.841797 6.52344C0.949821 6.4146 1.07814 6.32773 1.21973 6.26855C1.36178 6.2092 1.51494 6.17871 1.66895 6.17871C1.82278 6.17877 1.97528 6.20926 2.11719 6.26855C2.25877 6.32773 2.38709 6.4146 2.49512 6.52344L6.05762 10.1104L6.05859 10.1113C6.07412 10.127 6.09241 10.1391 6.1123 10.1475C6.13234 10.1558 6.15426 10.1602 6.17578 10.1602C6.19718 10.1601 6.21836 10.1558 6.23828 10.1475C6.25821 10.1391 6.27644 10.127 6.29199 10.1113L6.29297 10.1104L15.5049 0.844727C15.613 0.735735 15.742 0.649069 15.8838 0.589844C16.0257 0.530591 16.1782 0.5 16.332 0.5Z" fill="black" fill-opacity="0.2"/>
<path d="M16.332 0.5C16.4859 0.500022 16.6383 0.530535 16.7803 0.589844C16.9219 0.649011 17.0502 0.735887 17.1582 0.844727C17.2666 0.95357 17.3526 1.08266 17.4111 1.22461C17.4697 1.36651 17.5 1.51843 17.5 1.67188C17.5 1.82543 17.4697 1.97812 17.4111 2.12012C17.3527 2.26161 17.2662 2.38944 17.1582 2.49805L17.1592 2.49902L7.94727 11.7627V11.7637C7.47791 12.2349 6.84113 12.4999 6.17676 12.5C5.5122 12.5 4.87472 12.235 4.40527 11.7637V11.7627L0.842773 8.17871C0.734287 8.06995 0.647502 7.94167 0.588867 7.7998C0.530217 7.65777 0.500028 7.50519 0.5 7.35156C0.5 7.19787 0.530194 7.04542 0.588867 6.90332C0.647468 6.7614 0.733321 6.63224 0.841797 6.52344C0.949821 6.4146 1.07814 6.32773 1.21973 6.26855C1.36178 6.2092 1.51494 6.17871 1.66895 6.17871C1.82278 6.17877 1.97528 6.20926 2.11719 6.26855C2.25877 6.32773 2.38709 6.4146 2.49512 6.52344L6.05762 10.1104L6.05859 10.1113C6.07412 10.127 6.09241 10.1391 6.1123 10.1475C6.13234 10.1558 6.15426 10.1602 6.17578 10.1602C6.19718 10.1601 6.21836 10.1558 6.23828 10.1475C6.25821 10.1391 6.27644 10.127 6.29199 10.1113L6.29297 10.1104L15.5049 0.844727C15.613 0.735735 15.742 0.649069 15.8838 0.589844C16.0257 0.530591 16.1782 0.5 16.332 0.5Z" fill="black" fill-opacity="0.2"/>
<path d="M16.332 0.5C16.4859 0.500022 16.6383 0.530535 16.7803 0.589844C16.9219 0.649011 17.0502 0.735887 17.1582 0.844727C17.2666 0.95357 17.3526 1.08266 17.4111 1.22461C17.4697 1.36651 17.5 1.51843 17.5 1.67188C17.5 1.82543 17.4697 1.97812 17.4111 2.12012C17.3527 2.26161 17.2662 2.38944 17.1582 2.49805L17.1592 2.49902L7.94727 11.7627V11.7637C7.47791 12.2349 6.84113 12.4999 6.17676 12.5C5.5122 12.5 4.87472 12.235 4.40527 11.7637V11.7627L0.842773 8.17871C0.734287 8.06995 0.647502 7.94167 0.588867 7.7998C0.530217 7.65777 0.500028 7.50519 0.5 7.35156C0.5 7.19787 0.530194 7.04542 0.588867 6.90332C0.647468 6.7614 0.733321 6.63224 0.841797 6.52344C0.949821 6.4146 1.07814 6.32773 1.21973 6.26855C1.36178 6.2092 1.51494 6.17871 1.66895 6.17871C1.82278 6.17877 1.97528 6.20926 2.11719 6.26855C2.25877 6.32773 2.38709 6.4146 2.49512 6.52344L6.05762 10.1104L6.05859 10.1113C6.07412 10.127 6.09241 10.1391 6.1123 10.1475C6.13234 10.1558 6.15426 10.1602 6.17578 10.1602C6.19718 10.1601 6.21836 10.1558 6.23828 10.1475C6.25821 10.1391 6.27644 10.127 6.29199 10.1113L6.29297 10.1104L15.5049 0.844727C15.613 0.735735 15.742 0.649069 15.8838 0.589844C16.0257 0.530591 16.1782 0.5 16.332 0.5Z" stroke="#000322"/>
<path d="M16.332 0.5C16.4859 0.500022 16.6383 0.530535 16.7803 0.589844C16.9219 0.649011 17.0502 0.735887 17.1582 0.844727C17.2666 0.95357 17.3526 1.08266 17.4111 1.22461C17.4697 1.36651 17.5 1.51843 17.5 1.67188C17.5 1.82543 17.4697 1.97812 17.4111 2.12012C17.3527 2.26161 17.2662 2.38944 17.1582 2.49805L17.1592 2.49902L7.94727 11.7627V11.7637C7.47791 12.2349 6.84113 12.4999 6.17676 12.5C5.5122 12.5 4.87472 12.235 4.40527 11.7637V11.7627L0.842773 8.17871C0.734287 8.06995 0.647502 7.94167 0.588867 7.7998C0.530217 7.65777 0.500028 7.50519 0.5 7.35156C0.5 7.19787 0.530194 7.04542 0.588867 6.90332C0.647468 6.7614 0.733321 6.63224 0.841797 6.52344C0.949821 6.4146 1.07814 6.32773 1.21973 6.26855C1.36178 6.2092 1.51494 6.17871 1.66895 6.17871C1.82278 6.17877 1.97528 6.20926 2.11719 6.26855C2.25877 6.32773 2.38709 6.4146 2.49512 6.52344L6.05762 10.1104L6.05859 10.1113C6.07412 10.127 6.09241 10.1391 6.1123 10.1475C6.13234 10.1558 6.15426 10.1602 6.17578 10.1602C6.19718 10.1601 6.21836 10.1558 6.23828 10.1475C6.25821 10.1391 6.27644 10.127 6.29199 10.1113L6.29297 10.1104L15.5049 0.844727C15.613 0.735735 15.742 0.649069 15.8838 0.589844C16.0257 0.530591 16.1782 0.5 16.332 0.5Z" stroke="black" stroke-opacity="0.2"/>
<path d="M16.332 0.5C16.4859 0.500022 16.6383 0.530535 16.7803 0.589844C16.9219 0.649011 17.0502 0.735887 17.1582 0.844727C17.2666 0.95357 17.3526 1.08266 17.4111 1.22461C17.4697 1.36651 17.5 1.51843 17.5 1.67188C17.5 1.82543 17.4697 1.97812 17.4111 2.12012C17.3527 2.26161 17.2662 2.38944 17.1582 2.49805L17.1592 2.49902L7.94727 11.7627V11.7637C7.47791 12.2349 6.84113 12.4999 6.17676 12.5C5.5122 12.5 4.87472 12.235 4.40527 11.7637V11.7627L0.842773 8.17871C0.734287 8.06995 0.647502 7.94167 0.588867 7.7998C0.530217 7.65777 0.500028 7.50519 0.5 7.35156C0.5 7.19787 0.530194 7.04542 0.588867 6.90332C0.647468 6.7614 0.733321 6.63224 0.841797 6.52344C0.949821 6.4146 1.07814 6.32773 1.21973 6.26855C1.36178 6.2092 1.51494 6.17871 1.66895 6.17871C1.82278 6.17877 1.97528 6.20926 2.11719 6.26855C2.25877 6.32773 2.38709 6.4146 2.49512 6.52344L6.05762 10.1104L6.05859 10.1113C6.07412 10.127 6.09241 10.1391 6.1123 10.1475C6.13234 10.1558 6.15426 10.1602 6.17578 10.1602C6.19718 10.1601 6.21836 10.1558 6.23828 10.1475C6.25821 10.1391 6.27644 10.127 6.29199 10.1113L6.29297 10.1104L15.5049 0.844727C15.613 0.735735 15.742 0.649069 15.8838 0.589844C16.0257 0.530591 16.1782 0.5 16.332 0.5Z" stroke="black" stroke-opacity="0.2"/>
<path d="M16.332 0.5C16.4859 0.500022 16.6383 0.530535 16.7803 0.589844C16.9219 0.649011 17.0502 0.735887 17.1582 0.844727C17.2666 0.95357 17.3526 1.08266 17.4111 1.22461C17.4697 1.36651 17.5 1.51843 17.5 1.67188C17.5 1.82543 17.4697 1.97812 17.4111 2.12012C17.3527 2.26161 17.2662 2.38944 17.1582 2.49805L17.1592 2.49902L7.94727 11.7627V11.7637C7.47791 12.2349 6.84113 12.4999 6.17676 12.5C5.5122 12.5 4.87472 12.235 4.40527 11.7637V11.7627L0.842773 8.17871C0.734287 8.06995 0.647502 7.94167 0.588867 7.7998C0.530217 7.65777 0.500028 7.50519 0.5 7.35156C0.5 7.19787 0.530194 7.04542 0.588867 6.90332C0.647468 6.7614 0.733321 6.63224 0.841797 6.52344C0.949821 6.4146 1.07814 6.32773 1.21973 6.26855C1.36178 6.2092 1.51494 6.17871 1.66895 6.17871C1.82278 6.17877 1.97528 6.20926 2.11719 6.26855C2.25877 6.32773 2.38709 6.4146 2.49512 6.52344L6.05762 10.1104L6.05859 10.1113C6.07412 10.127 6.09241 10.1391 6.1123 10.1475C6.13234 10.1558 6.15426 10.1602 6.17578 10.1602C6.19718 10.1601 6.21836 10.1558 6.23828 10.1475C6.25821 10.1391 6.27644 10.127 6.29199 10.1113L6.29297 10.1104L15.5049 0.844727C15.613 0.735735 15.742 0.649069 15.8838 0.589844C16.0257 0.530591 16.1782 0.5 16.332 0.5Z" stroke="black" stroke-opacity="0.2"/>
<path d="M16.332 0.5C16.4859 0.500022 16.6383 0.530535 16.7803 0.589844C16.9219 0.649011 17.0502 0.735887 17.1582 0.844727C17.2666 0.95357 17.3526 1.08266 17.4111 1.22461C17.4697 1.36651 17.5 1.51843 17.5 1.67188C17.5 1.82543 17.4697 1.97812 17.4111 2.12012C17.3527 2.26161 17.2662 2.38944 17.1582 2.49805L17.1592 2.49902L7.94727 11.7627V11.7637C7.47791 12.2349 6.84113 12.4999 6.17676 12.5C5.5122 12.5 4.87472 12.235 4.40527 11.7637V11.7627L0.842773 8.17871C0.734287 8.06995 0.647502 7.94167 0.588867 7.7998C0.530217 7.65777 0.500028 7.50519 0.5 7.35156C0.5 7.19787 0.530194 7.04542 0.588867 6.90332C0.647468 6.7614 0.733321 6.63224 0.841797 6.52344C0.949821 6.4146 1.07814 6.32773 1.21973 6.26855C1.36178 6.2092 1.51494 6.17871 1.66895 6.17871C1.82278 6.17877 1.97528 6.20926 2.11719 6.26855C2.25877 6.32773 2.38709 6.4146 2.49512 6.52344L6.05762 10.1104L6.05859 10.1113C6.07412 10.127 6.09241 10.1391 6.1123 10.1475C6.13234 10.1558 6.15426 10.1602 6.17578 10.1602C6.19718 10.1601 6.21836 10.1558 6.23828 10.1475C6.25821 10.1391 6.27644 10.127 6.29199 10.1113L6.29297 10.1104L15.5049 0.844727C15.613 0.735735 15.742 0.649069 15.8838 0.589844C16.0257 0.530591 16.1782 0.5 16.332 0.5Z" stroke="black" stroke-opacity="0.2"/>
</svg>
