<svg width="24" height="24" viewBox="0 0 24 24" fill="none" xmlns="http://www.w3.org/2000/svg">
<g clip-path="url(#clip0_5378_103083)">
<path d="M6.32772 13.5636C6.23467 15.1455 7.44432 16.4482 9.02618 16.5412C10.608 16.4482 11.8177 15.0524 11.7246 13.4706C11.8177 11.8887 10.608 10.493 9.02618 10.3999C7.44432 10.586 6.23467 11.9818 6.32772 13.5636ZM9.77058 13.5636C9.77058 14.215 9.39838 14.7733 8.93313 14.7733C8.46788 14.7733 8.09567 14.215 8.09567 13.5636C8.09567 12.9123 8.56093 12.354 9.02618 12.354C9.49143 12.354 9.77058 12.9123 9.77058 13.5636Z" fill="currentColor"/>
<path d="M15.0744 10.4932C13.4925 10.5862 12.2829 11.982 12.3759 13.5638C12.2829 15.1457 13.4925 16.4484 15.0744 16.6345C16.6562 16.5414 17.8659 15.1457 17.7729 13.5638C17.8659 11.982 16.6562 10.5862 15.0744 10.4932ZM15.0744 14.6804C14.6091 14.6804 14.2369 14.1221 14.2369 13.4708C14.2369 12.8194 14.6091 12.2611 15.0744 12.2611C15.5396 12.2611 15.9118 12.8194 15.9118 13.4708C15.9118 14.1221 15.5396 14.6804 15.0744 14.6804Z" fill="currentColor"/>
<path d="M21.9598 7.14315C21.8668 7.0501 21.8668 6.95705 21.8668 6.95705C20.2849 5.00299 18.0517 3.60724 15.5394 3.04894C15.0741 2.86284 14.5158 3.23504 14.4228 3.70029C14.3297 4.16554 14.6089 4.72384 15.0741 4.81689C15.0741 4.81689 15.0741 4.81689 15.1672 4.81689C17.2143 5.28215 19.0753 6.39875 20.378 7.9806C21.5876 10.8652 22.332 13.9358 22.332 17.0995C21.0293 18.3092 19.4475 19.1466 17.6795 19.4258V19.0536C17.6795 19.0536 17.6795 19.0536 17.6795 18.9605C18.7961 18.4953 19.9127 17.937 20.8432 17.0995C21.2154 16.8204 21.3085 16.169 21.0293 15.7968C20.7502 15.4246 20.0988 15.3316 19.7266 15.6107C17.5865 17.2856 14.888 18.1231 12.0965 18.03C9.39807 18.1231 6.69961 17.2856 4.55946 15.6107C4.18726 15.3316 3.53591 15.3316 3.25676 15.7968C2.97761 16.2621 2.97761 16.8204 3.44286 17.0995C4.37336 17.8439 5.48996 18.4953 6.60656 18.9605V19.4258C4.83861 19.1466 3.25676 18.3092 1.95405 17.0995C1.95405 13.9358 2.60541 10.8652 3.90811 7.9806C5.11776 6.39875 6.97876 5.3752 9.02587 4.90994C9.49112 4.72384 9.77027 4.25859 9.67722 3.79334C9.58417 3.23504 9.11892 2.95589 8.56062 3.04894C6.04826 3.60724 3.81506 4.90994 2.2332 6.95705V7.0501V7.14315C0.372201 10.8652 0.1861 14.215 0 17.4717C0 17.7509 0.0930502 18.03 0.279151 18.2161C2.14015 20.1702 4.65251 21.2868 7.35097 21.5659C7.63012 21.5659 7.81622 21.4729 8.00232 21.2868C8.18842 21.1007 8.28147 20.9146 8.28147 20.6354V19.7049C10.7008 20.2632 13.3062 20.2632 15.7255 19.7049V20.6354C15.7255 20.9146 15.8185 21.1007 16.0046 21.2868C16.1907 21.4729 16.3768 21.5659 16.656 21.5659C19.3544 21.3798 21.9598 20.2632 23.8209 18.3092C24.007 18.1231 24.1 17.8439 24.1 17.5648C23.9139 14.215 23.7278 10.8652 21.9598 7.14315Z" fill="currentColor"/>
<path d="M18.9811 8.25952C19.2603 7.79427 19.0742 7.23597 18.6089 7.04987C16.5618 6.11937 14.3286 5.56107 12.0023 5.65412C9.76913 5.56107 7.44287 6.11937 5.39577 7.04987C5.02357 7.23597 4.83747 7.79427 5.02357 8.25952C5.30272 8.72477 5.86102 8.81782 6.32627 8.63172C8.09423 7.79427 10.0483 7.42207 12.0023 7.42207C13.9564 7.42207 16.0035 7.79427 17.7714 8.63172C17.8645 8.72477 18.0506 8.72477 18.2367 8.72477C18.5158 8.72477 18.795 8.53867 18.9811 8.25952Z" fill="currentColor"/>
</g>
<defs>
<clipPath id="clip0_5378_103083">
<rect width="24" height="24" fill="currentColor"/>
</clipPath>
</defs>
</svg>
