<svg width="16" height="16" viewBox="0 0 16 16" fill="none" xmlns="http://www.w3.org/2000/svg">
<path d="M8.00087 3.75C6.80366 3.75082 5.62994 4.08228 4.60914 4.70782C3.58835 5.33335 2.76014 6.22866 2.21587 7.295C2.10478 7.5134 2.04688 7.75497 2.04688 8C2.04688 8.24503 2.10478 8.4866 2.21587 8.705C2.76134 9.76971 3.59006 10.6632 4.61077 11.2872C5.63147 11.9111 6.80457 12.2413 8.00087 12.2413C9.19718 12.2413 10.3703 11.9111 11.391 11.2872C12.4117 10.6632 13.2404 9.76971 13.7859 8.705C13.897 8.4866 13.9549 8.24503 13.9549 8C13.9549 7.75497 13.897 7.5134 13.7859 7.295C13.2416 6.22866 12.4134 5.33335 11.3926 4.70782C10.3718 4.08228 9.19809 3.75082 8.00087 3.75ZM12.8959 8.25C12.4343 9.15091 11.7331 9.90697 10.8694 10.4349C10.0058 10.9629 9.01313 11.2422 8.00087 11.2422C6.98862 11.2422 5.996 10.9629 5.13232 10.4349C4.26865 9.90697 3.56742 9.15091 3.10587 8.25C3.06199 8.17399 3.03889 8.08777 3.03889 8C3.03889 7.91223 3.06199 7.82601 3.10587 7.75C3.56742 6.84909 4.26865 6.09303 5.13232 5.56509C5.996 5.03714 6.98862 4.75778 8.00087 4.75778C9.01313 4.75778 10.0058 5.03714 10.8694 5.56509C11.7331 6.09303 12.4343 6.84909 12.8959 7.75C12.9398 7.82601 12.9629 7.91223 12.9629 8C12.9629 8.08777 12.9398 8.17399 12.8959 8.25Z" fill="currentColor"/>
<path d="M8 5.75C7.55499 5.75 7.11998 5.88196 6.74997 6.12919C6.37996 6.37643 6.09157 6.72783 5.92127 7.13896C5.75097 7.5501 5.70642 8.0025 5.79323 8.43895C5.88005 8.87541 6.09434 9.27632 6.40901 9.59099C6.72368 9.90566 7.12459 10.12 7.56105 10.2068C7.99751 10.2936 8.4499 10.249 8.86104 10.0787C9.27217 9.90843 9.62358 9.62004 9.87081 9.25003C10.118 8.88002 10.25 8.44501 10.25 8C10.2487 7.40367 10.0112 6.83214 9.58953 6.41047C9.16786 5.9888 8.59633 5.75132 8 5.75ZM8 9.25C7.75277 9.25 7.5111 9.17669 7.30554 9.03934C7.09998 8.90199 6.93976 8.70676 6.84515 8.47835C6.75054 8.24995 6.72579 7.99861 6.77402 7.75614C6.82225 7.51366 6.9413 7.29093 7.11612 7.11612C7.29093 6.9413 7.51366 6.82225 7.75614 6.77402C7.99861 6.72579 8.24995 6.75054 8.47836 6.84515C8.70676 6.93976 8.90199 7.09998 9.03934 7.30554C9.17669 7.5111 9.25 7.75277 9.25 8C9.25 8.33152 9.11831 8.64946 8.88389 8.88388C8.64946 9.1183 8.33152 9.25 8 9.25Z" fill="currentColor"/>
</svg>
