<svg width="24" height="24" viewBox="0 0 24 24" fill="none" xmlns="http://www.w3.org/2000/svg">
<path d="M15.6244 9.8249C15.2244 10.0249 15.0244 10.4249 15.1244 10.8249C15.7244 12.5249 14.9244 14.3249 13.2244 15.0249C11.5244 15.6249 9.7244 14.8249 9.0244 13.1249C8.3244 11.4249 9.2244 9.7249 10.9244 9.0249C11.6244 8.7249 12.5244 8.7249 13.2244 9.0249C13.6244 9.2249 14.1244 8.9249 14.2244 8.5249C14.4244 8.1249 14.1244 7.6249 13.7244 7.5249C11.2244 6.5249 8.4244 7.8249 7.4244 10.3249C6.7244 12.1249 7.2244 14.1249 8.5244 15.5249C10.4244 17.4249 13.5244 17.4249 15.4244 15.5249C16.8244 14.1249 17.2244 12.1249 16.5244 10.3249C16.5244 9.9249 16.0244 9.7249 15.6244 9.8249Z" fill="currentColor"/>
<path d="M17.6262 7.1249C18.068 7.1249 18.4262 6.76673 18.4262 6.3249C18.4262 5.88307 18.068 5.5249 17.6262 5.5249C17.1843 5.5249 16.8262 5.88307 16.8262 6.3249C16.8262 6.76673 17.1843 7.1249 17.6262 7.1249Z" fill="currentColor"/>
<path d="M21.725 6.325C21.725 4.125 19.925 2.325 17.725 2.225C13.925 1.925 10.125 1.925 6.325 2.225C4.125 2.225 2.325 4.025 2.225 6.225C1.925 10.025 1.925 13.825 2.225 17.625C2.225 19.825 4.025 21.625 6.225 21.725C8.125 21.925 10.025 22.025 12.025 22.025C14.025 22.025 15.825 21.925 17.725 21.725C19.925 21.725 21.725 19.925 21.725 17.725C22.025 13.925 22.025 10.125 21.725 6.325ZM20.125 17.725C20.125 19.025 19.025 20.125 17.725 20.125H17.625C13.925 20.525 10.125 20.525 6.325 20.125C5.025 20.125 3.925 19.025 3.925 17.725C3.925 17.725 3.925 17.725 3.925 17.625C3.625 13.825 3.625 10.125 3.925 6.325C3.925 5.025 5.025 3.925 6.325 3.925C6.325 3.925 6.325 3.925 6.425 3.925C8.325 3.725 10.125 3.625 12.025 3.625C13.925 3.625 15.825 3.725 17.725 3.925C19.025 3.925 20.125 5.025 20.125 6.325C20.125 6.325 20.125 6.325 20.125 6.425C20.425 10.125 20.425 13.925 20.125 17.725Z" fill="currentColor"/>
</svg>
