<svg width="24" height="24" viewBox="0 0 24 24" fill="none" xmlns="http://www.w3.org/2000/svg">
<path d="M4.7 2C3.2 2 2 3.2 2 4.7C2 6.2 3.2 7.4 4.7 7.4C6.2 7.4 7.4 6.2 7.4 4.7C7.4 3.2 6.2 2 4.7 2ZM4.7 5.8C4.1 5.8 3.5 5.3 3.5 4.6C3.5 3.9 4 3.4 4.7 3.4C5.4 3.4 5.9 3.9 5.9 4.6C5.9 5.3 5.3 5.8 4.7 5.8Z" fill="currentColor"/>
<path d="M6.6 8.2002H2.8C2.3 8.2002 2 8.5002 2 8.9002C2 9.3002 2.3 9.7002 2.8 9.7002H5.9V20.5002H3.5V12.0002C3.5 11.6002 3.2 11.2002 2.7 11.2002C2.2 11.2002 2 11.6002 2 12.0002V21.2002C2 21.7002 2.3 22.0002 2.8 22.0002H6.6C7 22.0002 7.4 21.7002 7.4 21.2002V8.9002C7.4 8.5002 7 8.2002 6.6 8.2002Z" fill="currentColor"/>
<path d="M20.6996 9.4001C19.7996 8.5001 18.5996 8.1001 17.3996 8.1001H16.5996C15.4996 8.1001 14.4996 8.3001 13.4996 8.8001C13.4996 8.4001 13.0996 8.1001 12.6996 8.1001H8.89961C8.49961 8.1001 8.09961 8.4001 8.09961 8.9001V21.2001C8.09961 21.6001 8.39961 22.0001 8.89961 22.0001H12.6996C13.0996 22.0001 13.4996 21.7001 13.4996 21.2001V14.3001C13.4996 13.5001 14.1996 12.8001 14.9996 12.8001C15.7996 12.8001 16.4996 13.5001 16.4996 14.3001V21.2001C16.4996 21.6001 16.7996 22.0001 17.2996 22.0001H21.0996C21.4996 22.0001 21.8996 21.7001 21.8996 21.2001V12.7001C21.9996 11.5001 21.5996 10.3001 20.6996 9.4001ZM20.4996 20.5001H18.1996V14.3001C18.1996 12.6001 16.7996 11.2001 15.0996 11.2001C13.3996 11.2001 11.9996 12.6001 11.9996 14.3001V20.5001H9.69961V9.7001H11.9996V10.5001C11.9996 10.8001 12.1996 11.1001 12.4996 11.2001C12.7996 11.3001 13.0996 11.3001 13.2996 11.0001C13.9996 10.2001 14.5996 9.7001 16.5996 9.7001H17.3996C18.1996 9.7001 18.9996 10.0001 19.5996 10.5001C20.1996 11.1001 20.4996 11.9001 20.3996 12.7001V20.5001H20.4996Z" fill="currentColor"/>
</svg>
