<svg width="24" height="24" viewBox="0 0 24 24" fill="none" xmlns="http://www.w3.org/2000/svg">
<g clip-path="url(#clip0_5378_103070)">
<path d="M23.2985 17.1028C22.9525 16.7568 22.4336 15.1135 22.4336 11.9999C22.4336 8.88624 22.9525 7.15644 23.212 6.89697C23.558 7.24293 23.9904 9.05922 23.9904 11.9999C24.0769 15.1135 23.558 16.7568 23.2985 17.1028Z" stroke="currentColor" stroke-width="1.7298" stroke-miterlimit="10" stroke-linecap="round" stroke-linejoin="round"/>
<path d="M17.6759 17.7082C16.1191 17.7082 14.8218 15.1135 14.8218 11.9998C14.8218 9.83759 15.4272 7.84832 16.3786 6.89693C16.811 6.46448 17.2435 6.2915 17.6759 6.2915C18.3679 6.2915 19.1463 6.89693 19.6652 7.84832C20.2706 8.97269 20.6166 10.443 20.6166 11.9998C20.6166 15.1135 19.2328 17.7082 17.6759 17.7082Z" stroke="currentColor" stroke-width="1.7298" stroke-miterlimit="10" stroke-linecap="round" stroke-linejoin="round"/>
<path d="M6.7789 18.0544C3.49228 18.0544 0.811096 15.3732 0.811096 12.0001C0.811096 10.3568 1.41653 8.88646 2.54089 7.6756C3.66526 6.55123 5.22208 5.9458 6.7789 5.9458C8.4222 5.9458 9.89253 6.55123 11.0169 7.76209C12.1413 8.88646 12.7467 10.4433 12.7467 12.0866C12.8332 15.3732 10.0655 18.0544 6.7789 18.0544Z" stroke="currentColor" stroke-width="1.7298" stroke-miterlimit="10" stroke-linecap="round" stroke-linejoin="round"/>
</g>
<defs>
<clipPath id="clip0_5378_103070">
<rect width="24" height="24" fill="currentColor"/>
</clipPath>
</defs>
</svg>
