<svg width="21" height="20" viewBox="0 0 21 20" fill="none" xmlns="http://www.w3.org/2000/svg">
<path d="M15.1584 2.33332H4.12904C3.32021 2.33332 2.65845 3.08332 2.65845 3.99999C2.65845 4.91666 3.32021 5.66666 4.12904 5.66666H10.7467" stroke="currentColor" stroke-width="1.66667" stroke-miterlimit="10" stroke-linecap="round" stroke-linejoin="round"/>
<path d="M16.9766 4.7456H3.34022L1.82507 3.99999V15.9298C1.82507 17.1974 2.80992 18.1667 4.0978 18.1667H16.9766C17.8099 18.1667 18.4917 17.4956 18.4917 16.6754V6.23683C18.4917 5.41666 17.8099 4.7456 16.9766 4.7456ZM15.4614 12.9474C14.6281 12.9474 13.9463 12.2763 13.9463 11.4561C13.9463 10.636 14.6281 9.9649 15.4614 9.9649C16.2948 9.9649 16.9766 10.636 16.9766 11.4561C16.9766 12.2763 16.2948 12.9474 15.4614 12.9474Z" fill="currentColor"/>
</svg>
