<svg width="86" height="87" viewBox="0 0 86 87" fill="none" xmlns="http://www.w3.org/2000/svg">
<g filter="url(#filter0_f_4870_28676)">
<ellipse cx="43.3941" cy="44.0008" rx="11.7262" ry="11.8992" fill="#FFD012" fill-opacity="0.6"/>
</g>
<path d="M3.9269 77.0569C3.9269 76.4199 3.41047 75.9034 2.77344 75.9034C2.1364 75.9034 1.61998 76.4199 1.61998 77.0569L3.9269 77.0569ZM3.9269 86L3.9269 77.0569L1.61998 77.0569L1.61998 86L3.9269 86Z" fill="#FFD012"/>
<path d="M11.5865 86.0109C12.2235 86.0109 12.7399 85.4945 12.7399 84.8574C12.7399 84.2204 12.2235 83.704 11.5865 83.704L11.5865 86.0109ZM2.77344 86.0109L11.5865 86.0109L11.5865 83.704L2.77344 83.704L2.77344 86.0109Z" fill="#FFD012"/>
<path d="M82.0418 10.9431C82.0418 11.5801 82.5583 12.0966 83.1953 12.0966C83.8323 12.0966 84.3488 11.5801 84.3488 10.9431L82.0418 10.9431ZM82.0419 2L82.0418 10.9431L84.3488 10.9431L84.3488 2L82.0419 2Z" fill="#FFD012"/>
<path d="M83.1953 3.14258L74.3823 3.14257" stroke="#FFD012" stroke-width="2.30692" stroke-linecap="round"/>
<path d="M9.81303 3.15346C10.4501 3.15346 10.9665 2.63704 10.9665 2C10.9665 1.36296 10.4501 0.846541 9.81303 0.846541V3.15346ZM1 3.15346H9.81303V0.846541H1V3.15346Z" fill="#FFD012"/>
<path d="M0.971541 10.9431C0.971541 11.5801 1.48796 12.0966 2.125 12.0966C2.76204 12.0966 3.27846 11.5801 3.27846 10.9431H0.971541ZM0.971541 2L0.971541 10.9431H3.27846L3.27846 2L0.971541 2Z" fill="#FFD012"/>
<path d="M76.187 84.1415C75.5499 84.1415 75.0335 84.6579 75.0335 85.2949C75.0335 85.932 75.5499 86.4484 76.187 86.4484L76.187 84.1415ZM85 84.1415L76.187 84.1415L76.187 86.4484L85 86.4484L85 84.1415Z" fill="#FFD012"/>
<path d="M83.875 85.2949L83.875 76.3518" stroke="#FFD012" stroke-width="2.30692" stroke-linecap="round"/>
<path d="M37.4432 33.903L32.5981 31.0643M26.2559 42.2117L29.5516 44.1426" stroke="url(#paint0_linear_4870_28676)" stroke-width="2.5" stroke-miterlimit="10" stroke-linecap="round" stroke-linejoin="round"/>
<path d="M53.8884 29.2244L49.5384 31.773L45.612 30.3075C44.8268 30.0144 43.9541 30.0904 43.2296 30.5148L35.8289 34.8507C34.8177 35.4431 34.4713 36.7551 35.0551 37.7812C35.6389 38.8073 36.9318 39.1588 37.943 38.5664L42.5659 35.858L43.3611 37.2556C44.8818 39.9285 48.25 40.8443 50.884 39.3011L57.1174 42.9531L60.2232 40.3586" stroke="url(#paint1_linear_4870_28676)" stroke-width="2.5" stroke-miterlimit="10" stroke-linecap="round" stroke-linejoin="round"/>
<path d="M54.0399 41.1498L58.3119 43.6527C59.3231 44.2451 59.6695 45.5571 59.0857 46.5832C58.5019 47.6093 57.209 47.9609 56.1978 47.3685L51.9258 44.8656" stroke="url(#paint2_linear_4870_28676)" stroke-width="2.5" stroke-miterlimit="10" stroke-linecap="round" stroke-linejoin="round"/>
<path d="M51.9246 44.8644L57.4172 48.0824C58.4284 48.6748 58.7748 49.9868 58.191 51.0129C57.6073 52.039 56.3143 52.3906 55.3031 51.7982L49.8105 48.5802" stroke="url(#paint3_linear_4870_28676)" stroke-width="2.5" stroke-miterlimit="10" stroke-linecap="round" stroke-linejoin="round"/>
<path d="M49.8114 48.5815L54.0834 51.0844C55.0945 51.6767 55.441 52.9888 54.8572 54.0149C54.2734 55.041 52.9805 55.3925 51.9693 54.8001L47.6973 52.2972" stroke="url(#paint4_linear_4870_28676)" stroke-width="2.5" stroke-miterlimit="10" stroke-linecap="round" stroke-linejoin="round"/>
<path d="M47.6961 52.2967L50.1373 53.7269C51.1484 54.3193 51.4949 55.6314 50.9111 56.6575C50.3273 57.6836 49.0343 58.0351 48.0232 57.4427L45.582 56.0124" stroke="url(#paint5_linear_4870_28676)" stroke-width="2.5" stroke-miterlimit="10" stroke-linecap="round" stroke-linejoin="round"/>
<path d="M43.1406 54.5815L45.5818 56.0117" stroke="url(#paint6_linear_4870_28676)" stroke-width="2.5" stroke-miterlimit="10" stroke-linecap="round" stroke-linejoin="round"/>
<path d="M35.9265 54.3919C34.9154 53.7995 34.5689 52.4874 35.1527 51.4614L36.9145 48.3649C37.4982 47.3388 38.7912 46.9873 39.8024 47.5796C40.8136 48.172 41.16 49.4841 40.5762 50.5102L38.8144 53.6067C38.2306 54.6327 36.9377 54.9843 35.9265 54.3919Z" stroke="url(#paint7_linear_4870_28676)" stroke-width="2.5" stroke-miterlimit="10" stroke-linecap="round" stroke-linejoin="round"/>
<path d="M39.5887 56.5364C38.5775 55.944 38.2311 54.632 38.8148 53.6059L39.8719 51.748C40.4557 50.722 41.7486 50.3703 42.7598 50.9628C43.771 51.5552 44.1174 52.8672 43.5336 53.8933L42.4766 55.7512C41.8928 56.7773 40.5998 57.1289 39.5887 56.5364Z" stroke="url(#paint8_linear_4870_28676)" stroke-width="2.5" stroke-miterlimit="10" stroke-linecap="round" stroke-linejoin="round"/>
<path d="M28.6023 50.1009C27.5912 49.5085 27.2447 48.1965 27.8285 47.1704L29.5902 44.0739C30.1741 43.0478 31.467 42.6963 32.4782 43.2887C33.4893 43.881 33.8358 45.1931 33.252 46.2192L31.4903 49.3157C30.9065 50.3418 29.6135 50.6933 28.6023 50.1009Z" stroke="url(#paint9_linear_4870_28676)" stroke-width="2.5" stroke-miterlimit="10" stroke-linecap="round" stroke-linejoin="round"/>
<path d="M32.2644 52.2454C31.2532 51.653 30.9068 50.341 31.4907 49.315L33.9571 44.9798C34.5409 43.9538 35.8338 43.6022 36.845 44.1946C37.8561 44.787 38.2026 46.0991 37.6188 47.1251L35.1523 51.4603C34.5686 52.4863 33.2756 52.8378 32.2644 52.2454Z" stroke="url(#paint10_linear_4870_28676)" stroke-width="2.5" stroke-miterlimit="10" stroke-linecap="round" stroke-linejoin="round"/>
<defs>
<filter id="filter0_f_4870_28676" x="1.66797" y="2.10156" width="83.4531" height="83.7988" filterUnits="userSpaceOnUse" color-interpolation-filters="sRGB">
<feFlood flood-opacity="0" result="BackgroundImageFix"/>
<feBlend mode="normal" in="SourceGraphic" in2="BackgroundImageFix" result="shape"/>
<feGaussianBlur stdDeviation="15" result="effect1_foregroundBlur_4870_28676"/>
</filter>
<linearGradient id="paint0_linear_4870_28676" x1="25.1591" y1="27.9038" x2="46.8416" y2="29.3506" gradientUnits="userSpaceOnUse">
<stop stop-color="#FF842C"/>
<stop offset="1" stop-color="#FFD012"/>
</linearGradient>
<linearGradient id="paint1_linear_4870_28676" x1="32.2764" y1="25.9067" x2="80.8095" y2="32.9254" gradientUnits="userSpaceOnUse">
<stop stop-color="#FF842C"/>
<stop offset="1" stop-color="#FFD012"/>
</linearGradient>
<linearGradient id="paint2_linear_4870_28676" x1="51.1961" y1="39.5775" x2="65.5723" y2="40.8604" gradientUnits="userSpaceOnUse">
<stop stop-color="#FF842C"/>
<stop offset="1" stop-color="#FFD012"/>
</linearGradient>
<linearGradient id="paint3_linear_4870_28676" x1="48.9612" y1="43.1192" x2="65.6815" y2="44.6841" gradientUnits="userSpaceOnUse">
<stop stop-color="#FF842C"/>
<stop offset="1" stop-color="#FFD012"/>
</linearGradient>
<linearGradient id="paint4_linear_4870_28676" x1="46.9676" y1="47.0091" x2="61.3437" y2="48.2921" gradientUnits="userSpaceOnUse">
<stop stop-color="#FF842C"/>
<stop offset="1" stop-color="#FFD012"/>
</linearGradient>
<linearGradient id="paint5_linear_4870_28676" x1="45.0318" y1="50.9836" x2="55.8877" y2="51.8583" gradientUnits="userSpaceOnUse">
<stop stop-color="#FF842C"/>
<stop offset="1" stop-color="#FFD012"/>
</linearGradient>
<linearGradient id="paint6_linear_4870_28676" x1="42.9013" y1="54.2359" x2="47.571" y2="54.8577" gradientUnits="userSpaceOnUse">
<stop stop-color="#FF842C"/>
<stop offset="1" stop-color="#FFD012"/>
</linearGradient>
<linearGradient id="paint7_linear_4870_28676" x1="34.2819" y1="45.5065" x2="45.8977" y2="46.2412" gradientUnits="userSpaceOnUse">
<stop stop-color="#FF842C"/>
<stop offset="1" stop-color="#FFD012"/>
</linearGradient>
<linearGradient id="paint8_linear_4870_28676" x1="38.0131" y1="49.1889" x2="48.2574" y2="49.8759" gradientUnits="userSpaceOnUse">
<stop stop-color="#FF842C"/>
<stop offset="1" stop-color="#FFD012"/>
</linearGradient>
<linearGradient id="paint9_linear_4870_28676" x1="26.9576" y1="41.2155" x2="38.5735" y2="41.9503" gradientUnits="userSpaceOnUse">
<stop stop-color="#FF842C"/>
<stop offset="1" stop-color="#FFD012"/>
</linearGradient>
<linearGradient id="paint10_linear_4870_28676" x1="30.5507" y1="41.8221" x2="43.5372" y2="42.6084" gradientUnits="userSpaceOnUse">
<stop stop-color="#FF842C"/>
<stop offset="1" stop-color="#FFD012"/>
</linearGradient>
</defs>
</svg>
