<svg width="86" height="87" viewBox="0 0 86 87" fill="none" xmlns="http://www.w3.org/2000/svg">
<g filter="url(#filter0_f_4870_28709)">
<ellipse cx="43.3941" cy="44.0008" rx="11.7262" ry="11.8992" fill="#FFD012" fill-opacity="0.6"/>
</g>
<path d="M3.9269 77.0569C3.9269 76.4199 3.41047 75.9034 2.77344 75.9034C2.1364 75.9034 1.61998 76.4199 1.61998 77.0569L3.9269 77.0569ZM3.9269 86L3.9269 77.0569L1.61998 77.0569L1.61998 86L3.9269 86Z" fill="#FFD012"/>
<path d="M11.5865 86.0109C12.2235 86.0109 12.7399 85.4945 12.7399 84.8574C12.7399 84.2204 12.2235 83.704 11.5865 83.704L11.5865 86.0109ZM2.77344 86.0109L11.5865 86.0109L11.5865 83.704L2.77344 83.704L2.77344 86.0109Z" fill="#FFD012"/>
<path d="M82.0418 10.9431C82.0418 11.5801 82.5583 12.0966 83.1953 12.0966C83.8323 12.0966 84.3488 11.5801 84.3488 10.9431L82.0418 10.9431ZM82.0419 2L82.0418 10.9431L84.3488 10.9431L84.3488 2L82.0419 2Z" fill="#FFD012"/>
<path d="M83.1953 3.14258L74.3823 3.14257" stroke="#FFD012" stroke-width="2.30692" stroke-linecap="round"/>
<path d="M9.81303 3.15346C10.4501 3.15346 10.9665 2.63704 10.9665 2C10.9665 1.36296 10.4501 0.846541 9.81303 0.846541V3.15346ZM1 3.15346H9.81303V0.846541H1V3.15346Z" fill="#FFD012"/>
<path d="M0.971541 10.9431C0.971541 11.5801 1.48796 12.0966 2.125 12.0966C2.76204 12.0966 3.27846 11.5801 3.27846 10.9431H0.971541ZM0.971541 2L0.971541 10.9431H3.27846L3.27846 2L0.971541 2Z" fill="#FFD012"/>
<path d="M76.187 84.1415C75.5499 84.1415 75.0335 84.6579 75.0335 85.2949C75.0335 85.932 75.5499 86.4484 76.187 86.4484L76.187 84.1415ZM85 84.1415L76.187 84.1415L76.187 86.4484L85 86.4484L85 84.1415Z" fill="#FFD012"/>
<path d="M83.875 85.2949L83.875 76.3518" stroke="#FFD012" stroke-width="2.30692" stroke-linecap="round"/>
<path d="M27.8244 54.1664L36.1305 61.6866C36.5719 62.0858 37.1507 62.3069 37.7512 62.306C38.0867 62.3058 38.4185 62.2372 38.7256 62.1044C39.1328 61.9384 39.4808 61.6579 39.7256 61.2983C39.9705 60.9386 40.1012 60.5159 40.1013 60.0835V57.7579H50.4274C52.8937 57.7443 55.2538 56.7721 56.99 55.0548C58.7261 53.3374 59.6966 51.0151 59.6884 48.5972C59.6884 48.2713 59.5564 47.9587 59.3213 47.7283C59.0863 47.4978 58.7674 47.3684 58.435 47.3684H40.1013V45.0427C40.1012 44.6104 39.9705 44.1877 39.7256 43.828C39.4808 43.4684 39.1328 43.1879 38.7256 43.0219C38.2987 42.8351 37.8254 42.7751 37.3641 42.8493C36.9029 42.9236 36.474 43.1288 36.1305 43.4397L27.8244 50.9599C27.5961 51.1629 27.4137 51.4105 27.2889 51.6867C27.1641 51.9629 27.0996 52.2617 27.0996 52.5638C27.0996 52.8659 27.1641 53.1646 27.2889 53.4408C27.4137 53.7171 27.5961 53.9634 27.8244 54.1664ZM37.5945 45.3883V48.5972C37.5945 48.9231 37.7265 49.2356 37.9616 49.4661C38.1967 49.6965 38.5155 49.826 38.8479 49.826H57.069C56.7875 51.3548 55.9694 52.739 54.7565 53.7388C53.5435 54.7386 52.0121 55.291 50.4274 55.3003H38.8479C38.5155 55.3003 38.1967 55.4298 37.9616 55.6602C37.7265 55.8907 37.5945 56.2032 37.5945 56.5291V59.6685L29.7461 52.562L37.5945 45.3883Z" fill="url(#paint0_linear_4870_28709)"/>
<path d="M48.0724 44.9846C48.3766 45.114 48.705 45.1809 49.037 45.181C49.64 45.1818 50.2209 44.9603 50.6625 44.5613L58.9688 37.0299C59.1957 36.8272 59.3768 36.5811 59.5006 36.3069C59.6245 36.0328 59.6885 35.7366 59.6885 35.4372C59.6885 35.1378 59.6245 34.8417 59.5006 34.5675C59.3768 34.2934 59.1957 34.0472 58.9688 33.8446L50.6625 26.3132C50.3202 26.0051 49.8927 25.8008 49.4325 25.7256C48.9724 25.6504 48.4996 25.7075 48.0724 25.8899C47.6622 26.0551 47.3116 26.3348 47.065 26.6937C46.8184 27.0525 46.6868 27.4743 46.6869 27.9058V30.2487H36.3608C33.8838 30.273 31.5179 31.2509 29.7818 32.9679C28.0457 34.6849 27.0812 37.0008 27.0999 39.4078C27.0999 39.7308 27.2319 40.0406 27.467 40.269C27.702 40.4974 28.0209 40.6258 28.3533 40.6258H46.6869V42.9677C46.6866 43.3993 46.8181 43.8214 47.0647 44.1804C47.3114 44.5394 47.662 44.8193 48.0724 44.9846ZM29.7167 38.1898C29.9855 36.6614 30.7978 35.2732 32.012 34.2671C33.2262 33.261 34.7652 32.701 36.3608 32.6846H47.9403C48.2727 32.6846 48.5915 32.5563 48.8266 32.3279C49.0617 32.0995 49.1937 31.7897 49.1937 31.4667V28.3126L57.0518 35.4385L49.1937 42.6381V39.4078C49.1937 39.0848 49.0617 38.775 48.8266 38.5466C48.5915 38.3182 48.2727 38.1898 47.9403 38.1898H29.7167Z" fill="url(#paint1_linear_4870_28709)"/>
<defs>
<filter id="filter0_f_4870_28709" x="1.66797" y="2.10156" width="83.4531" height="83.7988" filterUnits="userSpaceOnUse" color-interpolation-filters="sRGB">
<feFlood flood-opacity="0" result="BackgroundImageFix"/>
<feBlend mode="normal" in="SourceGraphic" in2="BackgroundImageFix" result="shape"/>
<feGaussianBlur stdDeviation="15" result="effect1_foregroundBlur_4870_28709"/>
</filter>
<linearGradient id="paint0_linear_4870_28709" x1="23.9049" y1="67.0155" x2="86.2857" y2="58.8779" gradientUnits="userSpaceOnUse">
<stop stop-color="#FF842C"/>
<stop offset="1" stop-color="#FFD012"/>
</linearGradient>
<linearGradient id="paint1_linear_4870_28709" x1="23.9049" y1="49.8905" x2="86.2857" y2="41.7529" gradientUnits="userSpaceOnUse">
<stop stop-color="#FF842C"/>
<stop offset="1" stop-color="#FFD012"/>
</linearGradient>
</defs>
</svg>
