<svg width="86" height="87" viewBox="0 0 86 87" fill="none" xmlns="http://www.w3.org/2000/svg">
<g filter="url(#filter0_f_4870_28653)">
<ellipse cx="43.3941" cy="44.0008" rx="11.7262" ry="11.8992" fill="#FFD012" fill-opacity="0.6"/>
</g>
<path d="M3.9269 77.0569C3.9269 76.4199 3.41047 75.9034 2.77344 75.9034C2.1364 75.9034 1.61998 76.4199 1.61998 77.0569L3.9269 77.0569ZM3.9269 86L3.9269 77.0569L1.61998 77.0569L1.61998 86L3.9269 86Z" fill="#FFD012"/>
<path d="M11.5865 86.0109C12.2235 86.0109 12.7399 85.4945 12.7399 84.8574C12.7399 84.2204 12.2235 83.704 11.5865 83.704L11.5865 86.0109ZM2.77344 86.0109L11.5865 86.0109L11.5865 83.704L2.77344 83.704L2.77344 86.0109Z" fill="#FFD012"/>
<path d="M82.0418 10.9431C82.0418 11.5801 82.5583 12.0966 83.1953 12.0966C83.8323 12.0966 84.3488 11.5801 84.3488 10.9431L82.0418 10.9431ZM82.0419 2L82.0418 10.9431L84.3488 10.9431L84.3488 2L82.0419 2Z" fill="#FFD012"/>
<path d="M83.1953 3.14258L74.3823 3.14257" stroke="#FFD012" stroke-width="2.30692" stroke-linecap="round"/>
<path d="M9.81303 3.15346C10.4501 3.15346 10.9665 2.63704 10.9665 2C10.9665 1.36296 10.4501 0.846541 9.81303 0.846541V3.15346ZM1 3.15346H9.81303V0.846541H1V3.15346Z" fill="#FFD012"/>
<path d="M0.971541 10.9431C0.971541 11.5801 1.48796 12.0966 2.125 12.0966C2.76204 12.0966 3.27846 11.5801 3.27846 10.9431H0.971541ZM0.971541 2L0.971541 10.9431H3.27846L3.27846 2L0.971541 2Z" fill="#FFD012"/>
<path d="M76.187 84.1415C75.5499 84.1415 75.0335 84.6579 75.0335 85.2949C75.0335 85.932 75.5499 86.4484 76.187 86.4484L76.187 84.1415ZM85 84.1415L76.187 84.1415L76.187 86.4484L85 86.4484L85 84.1415Z" fill="#FFD012"/>
<path d="M83.875 85.2949L83.875 76.3518" stroke="#FFD012" stroke-width="2.30692" stroke-linecap="round"/>
<path fill-rule="evenodd" clip-rule="evenodd" d="M42.7027 62.5314C42.7051 62.5314 42.7063 62.5314 42.7087 62.5344C43.1236 62.637 43.559 62.637 43.9751 62.5344C43.9775 62.5344 43.9799 62.5344 43.9823 62.5314C48.2964 61.4293 51.896 58.4915 54.6766 54.5241C58.714 48.7631 61.0195 40.8192 61.343 33.4611C61.343 33.4551 61.343 33.452 61.343 33.449C61.3707 32.664 61.0568 31.9031 60.4843 31.3747C59.9142 30.8463 59.1457 30.5957 58.3796 30.6923C53.6086 31.1543 48.3288 29.382 45.0948 26.6827C44.0785 25.7768 42.5764 25.7859 41.583 26.6917C38.3742 29.3759 33.0944 31.1513 28.3018 30.7044C27.5296 30.6138 26.772 30.8614 26.2091 31.3838C25.639 31.9122 25.3276 32.667 25.3552 33.449V33.4581C25.6703 40.8162 27.9734 48.7631 32.0084 54.5241C34.789 58.4915 38.3898 61.4293 42.7027 62.5314ZM43.2872 60.1642C39.5144 59.198 36.4006 56.5802 33.9688 53.111C30.1876 47.7124 28.0552 40.2576 27.7594 33.3615C27.757 33.295 27.7834 33.2316 27.8315 33.1863C27.8796 33.141 27.9458 33.1199 28.0107 33.129C28.024 33.129 28.0372 33.132 28.0492 33.132C33.4913 33.6483 39.4903 31.6132 43.1537 28.5396C43.1669 28.5275 43.1789 28.5154 43.191 28.5063C43.2775 28.4278 43.4087 28.4278 43.4953 28.5063C43.5073 28.5154 43.5193 28.5275 43.5313 28.5365C47.1947 31.6163 53.1949 33.6483 58.637 33.1199C58.649 33.1169 58.6598 33.1169 58.6719 33.1139C58.7416 33.1048 58.8102 33.129 58.8619 33.1773C58.9112 33.2226 58.9401 33.286 58.9401 33.3554C58.6346 40.2576 56.4998 47.7124 52.7162 53.111C50.2844 56.5802 47.1706 59.198 43.399 60.1642C43.3629 60.1733 43.3269 60.1733 43.2908 60.1642H43.2872Z" fill="url(#paint0_linear_4870_28653)"/>
<path fill-rule="evenodd" clip-rule="evenodd" d="M38.5382 41.8824C37.9248 41.9398 37.3475 42.2119 36.9073 42.6574C36.4118 43.1614 36.1328 43.8449 36.1328 44.5564V48.9499C36.1328 49.6614 36.4118 50.3449 36.9073 50.8489C37.404 51.3517 38.0775 51.6349 38.7787 51.6349H47.9191C48.6202 51.6349 49.2937 51.3517 49.7905 50.8489C50.286 50.3449 50.565 49.6614 50.565 48.9499V44.5564C50.565 43.8449 50.286 43.1614 49.7905 42.6574C49.3503 42.2119 48.773 41.9398 48.1596 41.8824V39.4306C48.1596 36.7346 46.0056 34.5488 43.3489 34.5488C40.6922 34.5488 38.5382 36.7346 38.5382 39.4306V41.8824ZM48.1596 44.5564V48.9499C48.1596 49.0146 48.1344 49.0768 48.0887 49.122C48.0442 49.1684 47.9828 49.194 47.9191 49.194H38.7787C38.715 49.194 38.6536 49.1684 38.6091 49.122C38.5634 49.0768 38.5382 49.0146 38.5382 48.9499V44.5564C38.5382 44.4917 38.5634 44.4295 38.6091 44.3843C38.6536 44.3379 38.715 44.3123 38.7787 44.3123H47.9191C47.9828 44.3123 48.0442 44.3379 48.0887 44.3843C48.1344 44.4295 48.1596 44.4917 48.1596 44.5564ZM45.7543 41.8714V39.4306C45.7543 38.082 44.6779 36.9897 43.3489 36.9897C42.0199 36.9897 40.9435 38.082 40.9435 39.4306V41.8714H45.7543Z" fill="url(#paint1_linear_4870_28653)"/>
<defs>
<filter id="filter0_f_4870_28653" x="1.66797" y="2.10156" width="83.4531" height="83.7988" filterUnits="userSpaceOnUse" color-interpolation-filters="sRGB">
<feFlood flood-opacity="0" result="BackgroundImageFix"/>
<feBlend mode="normal" in="SourceGraphic" in2="BackgroundImageFix" result="shape"/>
<feGaussianBlur stdDeviation="15" result="effect1_foregroundBlur_4870_28653"/>
</filter>
<linearGradient id="paint0_linear_4870_28653" x1="21.8252" y1="71.4573" x2="91.4813" y2="66.1145" gradientUnits="userSpaceOnUse">
<stop stop-color="#FF842C"/>
<stop offset="1" stop-color="#FFD012"/>
</linearGradient>
<linearGradient id="paint1_linear_4870_28653" x1="34.718" y1="55.764" x2="62.6924" y2="53.9207" gradientUnits="userSpaceOnUse">
<stop stop-color="#FF842C"/>
<stop offset="1" stop-color="#FFD012"/>
</linearGradient>
</defs>
</svg>
