<svg width="35" height="32" viewBox="0 0 35 32" fill="none" xmlns="http://www.w3.org/2000/svg">
<path d="M9.49315 15.885C9.41926 17.1687 10.4074 18.2677 11.6911 18.3416C11.7373 18.3416 11.7835 18.3416 11.8297 18.3416C13.1226 18.3416 14.1662 17.298 14.1569 16.0051C14.1569 14.7121 13.1133 13.6686 11.8204 13.6778C10.5829 13.6778 9.55779 14.6475 9.49315 15.885Z" fill="white"/>
<path d="M0.794026 15.2849C0.378442 15.2572 0.0182685 15.5804 -0.00020194 15.996C-0.0186724 16.4116 0.295325 16.7717 0.710909 16.7902C1.12649 16.8179 1.47743 16.4947 1.50514 16.0791C1.53284 15.6635 1.20961 15.3126 0.794026 15.2849Z" fill="white"/>
<path d="M9.34539 2.34583C9.7148 2.16112 9.86256 1.69936 9.67786 1.32995C9.49315 0.960545 9.03139 0.812782 8.66199 0.997486C8.29258 1.18219 8.14481 1.63472 8.32952 2.00412C8.51422 2.38277 8.96675 2.53977 9.34539 2.34583Z" fill="white"/>
<path d="M11.71 6.47423C12.2826 6.18794 12.5135 5.48606 12.2272 4.91348C11.9409 4.3409 11.239 4.11002 10.6664 4.39631C10.0938 4.6826 9.86295 5.38448 10.1492 5.95706C10.4355 6.52964 11.1374 6.76052 11.71 6.47423Z" fill="white"/>
<path d="M3.74973 9.3099C4.19302 9.59619 4.78408 9.47614 5.0796 9.03285C5.3659 8.58956 5.24584 7.9985 4.80255 7.70298C4.35926 7.41668 3.7682 7.53674 3.47268 7.98003C3.17715 8.42332 3.30644 9.02361 3.74973 9.3099Z" fill="white"/>
<path d="M5.16188 14.8691C4.51542 14.8322 3.97054 15.3217 3.9336 15.9681C3.89666 16.6146 4.38613 17.1595 5.03259 17.1964C5.67906 17.2334 6.22393 16.7439 6.26087 16.0974C6.29782 15.4602 5.80835 14.9061 5.16188 14.8691Z" fill="white"/>
<path d="M3.87863 22.6911C3.40763 22.9312 3.21369 23.5038 3.45381 23.984C3.69392 24.455 4.26651 24.649 4.74674 24.4089C5.21773 24.1687 5.41167 23.5962 5.17156 23.1159C4.93144 22.6449 4.34962 22.451 3.87863 22.6911Z" fill="white"/>
<path d="M8.40349 12.4588C9.04072 12.8744 9.89036 12.6989 10.2967 12.0617C10.7123 11.4245 10.5368 10.5748 9.89959 10.1685C9.26236 9.7529 8.41272 9.92837 8.00638 10.5656C7.59079 11.1936 7.76626 12.0432 8.40349 12.4588Z" fill="white"/>
<path d="M22.7646 6.38215C23.3003 6.73308 24.0298 6.58532 24.3808 6.04968C24.7317 5.51404 24.584 4.78445 24.0483 4.43352C23.5127 4.08258 22.7831 4.23034 22.4321 4.76598C22.072 5.31086 22.2197 6.03121 22.7646 6.38215Z" fill="white"/>
<path d="M25.1468 2.27246C25.4978 2.50334 25.9595 2.40176 26.1904 2.05082C26.4213 1.69988 26.3197 1.23812 25.9688 1.00724C25.6178 0.776359 25.1561 0.877946 24.9252 1.21965C24.7036 1.57059 24.8051 2.04158 25.1468 2.27246Z" fill="white"/>
<path d="M22.9399 13.6592C21.6563 13.5853 20.548 14.5734 20.4834 15.8571C20.4095 17.1408 21.3977 18.2491 22.6814 18.3137C22.7275 18.3137 22.7737 18.3137 22.8107 18.3137C24.0943 18.3137 25.1379 17.2701 25.1379 15.9772C25.1472 14.7489 24.1775 13.7238 22.9399 13.6592Z" fill="white"/>
<path d="M12.4761 12.2928C12.8732 13.0778 13.6767 13.5765 14.5632 13.5765C15.8469 13.5765 16.8905 12.5329 16.8905 11.24C16.8905 10.8798 16.8074 10.5197 16.6412 10.1872C16.0593 9.03278 14.6556 8.57102 13.5104 9.15284C12.356 9.7439 11.8943 11.1476 12.4761 12.2928Z" fill="white"/>
<path d="M30.7529 9.30976C31.2239 9.06965 31.4086 8.48783 31.1685 8.01683C30.9284 7.54584 30.3465 7.36113 29.8756 7.60125C29.4046 7.84136 29.2199 8.41394 29.4507 8.88494C29.7001 9.35594 30.2727 9.54988 30.7529 9.30976Z" fill="white"/>
<path d="M24.842 10.0488C24.1679 10.3905 23.8908 11.2124 24.2325 11.8866C24.5742 12.5608 25.3962 12.8378 26.0703 12.4961C26.7445 12.1544 27.0215 11.3325 26.6798 10.6583C26.3381 9.98413 25.5162 9.71631 24.842 10.0488Z" fill="white"/>
<path d="M17.2238 1.92131C17.7502 1.94902 18.2027 1.54267 18.2396 1.01626C18.2766 0.489855 17.861 0.0373299 17.3346 0.00038903C16.8082 -0.0273166 16.3557 0.369797 16.3187 0.896204C16.291 1.43185 16.6974 1.88437 17.2238 1.92131Z" fill="white"/>
<path d="M17.2145 7.95201C17.9718 7.99819 18.6183 7.41637 18.6552 6.65908C18.7014 5.9018 18.1196 5.25533 17.3623 5.21839C16.605 5.17221 15.9586 5.75403 15.9216 6.51132C15.8847 7.26861 16.4573 7.91507 17.2145 7.95201Z" fill="white"/>
<path d="M9.78907 21.9523C10.4632 21.6106 10.7403 20.7887 10.3986 20.1145C10.0569 19.4403 9.23496 19.1633 8.56079 19.505C7.88662 19.8467 7.60956 20.6686 7.95126 21.3428C8.29297 22.017 9.1149 22.294 9.78907 21.9523Z" fill="white"/>
<path d="M18.101 9.95613C17.3991 11.0367 17.6946 12.4773 18.7751 13.1792C19.8556 13.8811 21.2963 13.5856 21.9982 12.5051C22.7001 11.4245 22.4046 9.98384 21.324 9.28196C20.9454 9.03261 20.5021 8.90332 20.0496 8.90332C19.2646 8.90332 18.535 9.30043 18.101 9.95613Z" fill="white"/>
<path d="M22.1548 19.7087C21.573 18.5543 20.1693 18.0925 19.0241 18.6743C17.8697 19.2561 17.4079 20.6599 17.9898 21.8051C18.5716 22.9595 19.9753 23.4212 21.1205 22.8394C22.2657 22.2668 22.7367 20.8815 22.1641 19.7271C22.1641 19.7179 22.1641 19.7179 22.1548 19.7087Z" fill="white"/>
<path d="M26.2277 19.5425C25.5905 19.1269 24.7408 19.3024 24.3345 19.9396C23.9189 20.5769 24.0944 21.4265 24.7316 21.8328C25.3688 22.2484 26.2185 22.073 26.6248 21.4357C27.0404 20.8077 26.8649 19.9581 26.2277 19.5425Z" fill="white"/>
<path d="M30.6974 16.0418C30.7343 15.3953 30.2449 14.8504 29.5984 14.8135C28.9519 14.7765 28.4071 15.266 28.3701 15.9125C28.3332 16.5589 28.8226 17.1038 29.4691 17.1408C30.1063 17.1777 30.6605 16.679 30.6974 16.0418Z" fill="white"/>
<path d="M33.921 15.2106C33.5054 15.1829 33.1452 15.5062 33.1268 15.9218C33.1083 16.3373 33.4223 16.6975 33.8379 16.716C34.2534 16.7437 34.6044 16.4205 34.6321 16.0049C34.6506 15.5893 34.3366 15.2383 33.921 15.2106Z" fill="white"/>
<path d="M30.8825 22.6913C30.4392 22.405 29.8481 22.525 29.5526 22.9683C29.2663 23.4116 29.3864 24.0027 29.8296 24.2982C30.2729 24.5845 30.864 24.4644 31.1595 24.0211C31.455 23.5778 31.3257 22.9775 30.8825 22.6913Z" fill="white"/>
<path d="M9.47465 29.7289C9.12371 29.498 8.66195 29.5996 8.43107 29.9413C8.20019 30.2923 8.30177 30.754 8.64348 30.9849C8.99441 31.2158 9.45618 31.1142 9.68706 30.7725C9.92717 30.4308 9.82558 29.9598 9.47465 29.7289Z" fill="white"/>
<path d="M25.286 29.6546C24.9166 29.8393 24.7688 30.3011 24.9535 30.6705C25.1382 31.0399 25.6 31.1877 25.9694 31.003C26.3388 30.8183 26.4866 30.3657 26.3019 29.9963C26.1172 29.6177 25.6647 29.4607 25.286 29.6546Z" fill="white"/>
<path d="M16.5311 22.0452C17.2329 20.9647 16.9374 19.524 15.8569 18.8129C14.7764 18.111 13.3357 18.4065 12.6246 19.487C11.9134 20.5676 12.2182 22.0082 13.2987 22.7194C13.6774 22.9687 14.1207 23.098 14.5732 23.098C15.3674 23.1072 16.097 22.7101 16.5311 22.0452Z" fill="white"/>
<path d="M11.8671 25.6191C11.3314 25.2681 10.6018 25.4159 10.2509 25.9515C9.89996 26.4872 10.0477 27.2168 10.5834 27.5677C11.119 27.9186 11.8486 27.7709 12.1995 27.2352C12.5597 26.6996 12.4119 25.97 11.8671 25.6191Z" fill="white"/>
<path d="M17.3062 30.0795C16.7798 30.0518 16.3273 30.4581 16.2904 30.9845C16.2534 31.5109 16.669 31.9634 17.1954 32.0004C17.7218 32.0281 18.1744 31.631 18.2113 31.1046C18.239 30.5689 17.8327 30.1164 17.3062 30.0795Z" fill="white"/>
<path d="M17.3153 24.0485C16.558 24.0023 15.9116 24.5841 15.8746 25.3414C15.8285 26.0987 16.4103 26.7451 17.1676 26.7821C17.9249 26.819 18.5713 26.2464 18.6083 25.4892C18.6544 24.7411 18.0726 24.0854 17.3153 24.0485Z" fill="white"/>
<path d="M22.9219 25.5263C22.3494 25.8219 22.1185 26.5237 22.414 27.0963C22.7095 27.6689 23.4114 27.8998 23.984 27.6043C24.5566 27.318 24.7875 26.6161 24.5012 26.0435C24.2056 25.4709 23.5038 25.2308 22.9219 25.5263Z" fill="white"/>
</svg>
