<svg width="45" height="37" viewBox="0 0 45 37" fill="none" xmlns="http://www.w3.org/2000/svg">
<g clip-path="url(#clip0_4577_24152)">
<path d="M29.8598 27.6992C29.3078 27.6992 28.9398 27.5152 28.5718 27.1472L22.4998 21.0752L16.4278 27.1472C15.6918 27.8832 14.5878 27.8832 13.8518 27.1472C13.1158 26.4112 13.1158 25.3072 13.8518 24.5712L21.2118 17.2112C21.9478 16.4752 23.0518 16.4752 23.7878 17.2112L31.1478 24.5712C31.8838 25.3072 31.8838 26.4112 31.1478 27.1472C30.7798 27.5152 30.4118 27.6992 29.8598 27.6992Z" fill="url(#paint0_linear_4577_24152)"/>
<path d="M22.4999 36.8992C21.3959 36.8992 20.6599 36.1632 20.6599 35.0592V18.4992C20.6599 17.3952 21.3959 16.6592 22.4999 16.6592C23.6039 16.6592 24.3399 17.3952 24.3399 18.4992V35.0592C24.3399 36.1632 23.6039 36.8992 22.4999 36.8992Z" fill="url(#paint1_linear_4577_24152)"/>
<path d="M37.9536 32.1156C37.2176 32.1156 36.6656 31.7476 36.2976 31.1956C35.7456 30.2756 36.1136 29.1716 37.0336 28.6196C38.6896 27.6996 39.9776 26.0436 40.5296 24.2036C41.0816 22.3636 40.8976 20.3396 39.9776 18.6836C38.6896 16.2916 36.2976 14.8196 33.5376 14.8196H31.1456C30.2256 14.8196 29.4896 14.2676 29.3056 13.5316C27.4656 6.72359 20.4736 2.49159 13.6656 4.33159C10.3536 5.06759 7.5936 7.09159 5.9376 10.0356C4.0976 13.1636 3.7296 16.4756 4.4656 19.9716C5.0176 21.9956 5.9376 23.8356 7.2256 25.3076C7.9616 26.0436 7.7776 27.1476 7.0416 27.8836C6.3056 28.6196 5.2016 28.4356 4.4656 27.6996C2.8096 25.6756 1.5216 23.4676 0.785602 20.8916C-0.318398 16.6596 0.233602 12.2436 2.6256 8.37959C5.0176 4.51559 8.5136 1.93959 12.7456 0.835588C21.2096 -1.55641 29.8576 3.04359 32.6176 11.1396H33.5376C37.5856 11.1396 41.2656 13.3476 43.2896 16.8436C44.7616 19.4196 44.9456 22.3636 44.2096 25.3076C43.2896 28.0676 41.4496 30.4596 38.8736 31.9316C38.5056 31.9316 38.3216 32.1156 37.9536 32.1156Z" fill="url(#paint2_linear_4577_24152)"/>
<path d="M29.8598 27.6992C29.3078 27.6992 28.9398 27.5152 28.5718 27.1472L22.4998 21.0752L16.4278 27.1472C15.6918 27.8832 14.5878 27.8832 13.8518 27.1472C13.1158 26.4112 13.1158 25.3072 13.8518 24.5712L21.2118 17.2112C21.9478 16.4752 23.0518 16.4752 23.7878 17.2112L31.1478 24.5712C31.8838 25.3072 31.8838 26.4112 31.1478 27.1472C30.7798 27.5152 30.4118 27.6992 29.8598 27.6992Z" fill="url(#paint3_linear_4577_24152)"/>
</g>
<defs>
<linearGradient id="paint0_linear_4577_24152" x1="11.496" y1="30.3672" x2="46.7208" y2="25.7875" gradientUnits="userSpaceOnUse">
<stop stop-color="#FF842C"/>
<stop offset="1" stop-color="#FFD012"/>
</linearGradient>
<linearGradient id="paint1_linear_4577_24152" x1="20.2992" y1="41.7905" x2="27.4618" y2="41.6889" gradientUnits="userSpaceOnUse">
<stop stop-color="#FF842C"/>
<stop offset="1" stop-color="#FFD012"/>
</linearGradient>
<linearGradient id="paint2_linear_4577_24152" x1="-4.1114" y1="39.8278" x2="81.2989" y2="30.5601" gradientUnits="userSpaceOnUse">
<stop stop-color="#FF842C"/>
<stop offset="1" stop-color="#FFD012"/>
</linearGradient>
<linearGradient id="paint3_linear_4577_24152" x1="11.496" y1="30.3672" x2="46.7208" y2="25.7875" gradientUnits="userSpaceOnUse">
<stop stop-color="#FF842C"/>
<stop offset="1" stop-color="#FFD012"/>
</linearGradient>
<clipPath id="clip0_4577_24152">
<rect width="44.16" height="36.8" fill="white" transform="translate(0.419922 0.0996094)"/>
</clipPath>
</defs>
</svg>
